<svg width="64" height="64" viewBox="0 0 64 64" fill="none" xmlns="http://www.w3.org/2000/svg">
<path fill-rule="evenodd" clip-rule="evenodd" d="M8 0C3.58172 0 0 3.58172 0 8V56C0 60.4183 3.58172 64 8 64H56C60.4183 64 64 60.4183 64 56V8C64 3.58172 60.4183 0 56 0H8ZM22.496 30.808C19.904 27.304 17.12 23.8 14.144 20.296L11.648 22.696C15.104 26.776 18.224 30.76 21.008 34.648C18.416 40.408 14.768 45.4 10.064 49.528L12.416 52.216C17.024 48.184 20.624 43.432 23.312 38.008C25.136 40.792 26.816 43.48 28.256 46.168L30.896 43.48C29.072 40.408 27.104 37.288 24.944 34.216C27.104 28.6 28.352 22.312 28.736 15.304V12.664H11.408V15.976H25.424C25.04 21.256 24.032 26.2 22.496 30.808ZM51.44 12.664H31.712V15.976H33.296C33.728 23.416 35.84 30.616 39.632 37.624C36.56 42.136 32.72 46.456 28.112 50.536L30.464 53.416C34.784 49.432 38.48 45.256 41.552 40.888C44.144 45.112 47.504 49.288 51.536 53.416L53.936 50.584C49.712 46.408 46.304 42.136 43.616 37.72C47.792 30.808 50.384 23.512 51.44 15.736V12.664ZM41.696 34.36C38.576 28.408 36.8 22.312 36.416 15.976H48.176C47.12 22.456 44.96 28.6 41.696 34.36Z" fill="black"/>
</svg>
