<svg width="64" height="64" viewBox="0 0 64 64" fill="none" xmlns="http://www.w3.org/2000/svg">
<path fill-rule="evenodd" clip-rule="evenodd" d="M8 0C3.58172 0 0 3.58172 0 8V56C0 60.4183 3.58172 64 8 64H56C60.4183 64 64 60.4183 64 56V8C64 3.58172 60.4183 0 56 0H8ZM23.936 39.688V33.256H30.512V39.688H23.936ZM40.256 39.688H33.68V33.256H40.256V39.688ZM40.256 23.848V30.184H33.68V23.848H40.256ZM23.936 23.848H30.512V30.184H23.936V23.848ZM53.216 12.472H10.784V15.832H53.216V12.472ZM51.584 24.232H48.224V47.8H15.872V24.376H12.512V51.16H48.224V53.704H51.584V24.232ZM43.568 20.68H20.624V42.856H43.568V20.68Z" fill="black"/>
</svg>
