<svg width="64" height="64" viewBox="0 0 64 64" fill="none" xmlns="http://www.w3.org/2000/svg">
<path fill-rule="evenodd" clip-rule="evenodd" d="M8 0C3.58172 0 0 3.58172 0 8V56C0 60.4183 3.58172 64 8 64H56C60.4183 64 64 60.4183 64 56V8C64 3.58172 60.4183 0 56 0H8ZM9.1167 32.6953C9.1167 40.6592 13.4575 45.6152 20.4473 45.6152C26.1382 45.6152 30.2227 42.3169 30.8721 37.3779V37.2583H26.5483L26.5312 37.3438C25.8989 40.061 23.5747 41.8042 20.4473 41.8042C16.2432 41.8042 13.6284 38.3008 13.6284 32.6782V32.644C13.6284 27.0386 16.2432 23.5352 20.4302 23.5352C23.5405 23.5352 25.8989 25.4663 26.5312 28.3887L26.5483 28.457H30.8721V28.3203C30.291 23.2788 26.0356 19.7241 20.4302 19.7241C13.4404 19.7241 9.1167 24.6631 9.1167 32.6611V32.6953ZM41.9634 20.3394L33.2134 45H37.8276L39.8784 38.6255H49.0044L51.0723 45H55.6865L46.9365 20.3394H41.9634ZM40.9893 35.2246L44.3047 24.9194H44.5952L47.9106 35.2246H40.9893Z" fill="black"/>
</svg>
