<svg width="64" height="65" viewBox="0 0 64 65" fill="none" xmlns="http://www.w3.org/2000/svg">
<path fill-rule="evenodd" clip-rule="evenodd" d="M8 0C3.58172 0 0 3.58172 0 8V56C0 60.4183 3.58172 64 8 64H56C60.4183 64 64 60.4183 64 56V8C64 3.58172 60.4183 0 56 0H8ZM37.232 13.72H24.992V16.888H37.232V20.968H26.768V33.208H34.976C32.72 36.904 28.976 40.12 23.696 42.808L25.856 45.544C30.992 42.52 34.784 38.872 37.232 34.6V47.896H40.448V35.128C44.72 38.68 48.128 42.088 50.672 45.304L53.024 42.952C50.24 39.736 46.832 36.472 42.8 33.208H50.912V20.968H40.448V16.888H52.544V13.72H40.448V9.832H37.232V13.72ZM47.744 23.992V30.136H40.448V23.992H47.744ZM37.232 23.992V30.136H29.984V23.992H37.232ZM21.776 17.128C19.76 14.824 17.312 12.52 14.432 10.216L12.176 12.424C15.248 14.872 17.696 17.176 19.52 19.384L21.776 17.128ZM21.776 21.784H10.688V24.952H17.984C16.352 27.64 14.288 30.328 11.888 33.064V35.704H19.088C18.416 38.824 17.456 41.608 16.304 44.104C14.336 44.632 12.272 47.08 10.064 51.448L12.608 53.704C14.624 49.48 16.208 47.368 17.264 47.368C17.696 47.368 18.08 47.512 18.464 47.848C20.096 49.48 21.968 50.728 23.984 51.496C25.712 52.216 28.256 52.6 31.568 52.696C34.448 52.792 37.664 52.84 41.312 52.84H53.216L53.984 49.528C48.608 49.72 44.24 49.816 40.88 49.816C39.0674 49.816 37.3634 49.8024 35.768 49.7897C34.3638 49.7785 33.0438 49.768 31.808 49.768C29.024 49.672 26.816 49.336 25.28 48.76C23.648 48.04 22.112 46.984 20.576 45.592C20.192 45.208 19.808 44.92 19.424 44.728C20.576 42.136 21.536 38.92 22.304 35.08V32.776H15.968C18.176 30.088 20.096 27.352 21.776 24.52V21.784Z" fill="black"/>
</svg>
