<svg width="64" height="64" viewBox="0 0 64 64" fill="none" xmlns="http://www.w3.org/2000/svg">
<path fill-rule="evenodd" clip-rule="evenodd" d="M8 0C3.58172 0 0 3.58172 0 8V56C0 60.4183 3.58172 64 8 64H56C60.4183 64 64 60.4183 64 56V8C64 3.58172 60.4183 0 56 0H8ZM9.18945 38.54C9.49707 42.7954 13.1372 45.6152 18.8623 45.6152C24.7754 45.6152 28.4839 42.6074 28.4839 37.8052V37.7881C28.4839 34.0625 26.3135 31.9775 21.1182 30.8838L18.4692 30.3198C15.3931 29.6704 14.1455 28.5767 14.1455 26.8335V26.8164C14.1455 24.7144 16.0938 23.4326 18.8281 23.4326C21.6479 23.4155 23.4766 24.7827 23.7842 26.6968L23.8184 26.9019H28.0396L28.0225 26.6797C27.7148 22.7148 24.314 19.7241 18.8452 19.7241C13.5132 19.7241 9.71924 22.6978 9.71924 27.1069V27.124C9.71924 30.7983 11.9067 33.1567 16.9482 34.2163L19.5972 34.7632C22.7759 35.4468 24.0576 36.5234 24.0576 38.3008V38.3179C24.0576 40.437 21.9727 41.9067 18.999 41.9067C15.8716 41.9067 13.667 40.5396 13.4619 38.4717L13.4448 38.3008H9.17236L9.18945 38.54ZM32.3975 32.6782C32.3975 40.6079 36.8408 45.6152 44.0698 45.6152C45.6934 45.6152 47.1631 45.3589 48.4961 44.8804L50.4956 47.5635H54.8022L51.521 43.1543C54.2041 40.9326 55.7251 37.2925 55.7251 32.6782V32.644C55.7251 24.6973 51.2476 19.7241 44.0698 19.7241C36.9092 19.7241 32.3975 24.6973 32.3975 32.644V32.6782ZM46.0181 41.5479C45.4028 41.7188 44.7534 41.8042 44.0698 41.8042C39.6265 41.8042 36.8921 38.2153 36.8921 32.6782V32.644C36.8921 27.0728 39.6948 23.5352 44.0698 23.5352C48.4448 23.5352 51.2305 27.0728 51.2305 32.644V32.6782C51.2305 35.686 50.4102 38.1128 48.9575 39.7192L47.146 37.2754H42.8394L46.0181 41.5479Z" fill="black"/>
</svg>
