<svg fill="none" height="279" viewBox="0 0 279 279" width="279" xmlns="http://www.w3.org/2000/svg"><path d="m19.9706 40.9706c-12.85131-12.8513-19.276967-19.277-19.711144-24.7937-.376727-4.7868 1.560894-9.46462 5.212044-12.58299 4.20792-3.59391 13.2952-3.59391 31.4696-3.59391h218.0589c8.401 0 12.601 0 15.81 1.6349 2.822 1.4381 5.117 3.73281 6.555 6.55524 1.635 3.20866 1.635 7.40906 1.635 15.80986v218.059c0 18.174 0 27.262-3.594 31.47-3.118 3.651-7.796 5.588-12.583 5.212-5.517-.435-11.942-6.86-24.794-19.712z" fill="#000"/></svg>