<svg width="64" height="64" viewBox="0 0 64 64" fill="none" xmlns="http://www.w3.org/2000/svg">
<path fill-rule="evenodd" clip-rule="evenodd" d="M8 0C3.58172 0 0 3.58172 0 8V56C0 60.4183 3.58172 64 8 64H56C60.4183 64 64 60.4183 64 56V8C64 3.58172 60.4183 0 56 0H8ZM9.36035 32.6782C9.36035 40.6421 13.8037 45.6152 20.9473 45.6152C27.5269 45.6152 31.731 41.5308 31.731 35.1562V32.0801H21.4941V35.4468H27.4072L27.3901 35.9595C27.3389 39.4629 24.7754 41.8042 21.0156 41.8042C16.6235 41.8042 13.855 38.3008 13.855 32.644V32.6099C13.855 27.0386 16.5723 23.5352 20.8789 23.5352C24.0405 23.5352 26.2964 25.1074 27.0996 27.8076L27.1509 27.9785H31.5259L31.5088 27.8076C30.6714 22.9883 26.5698 19.7241 20.8789 19.7241C13.855 19.7241 9.36035 24.7656 9.36035 32.644V32.6782ZM36.8579 20.3394V45H47.4023C52.666 45 55.8789 42.334 55.8789 38.0103V37.9761C55.8789 34.7803 53.5889 32.3877 50.2734 32.0801V31.7725C52.7515 31.3794 54.6655 29.0894 54.6655 26.5088V26.4746C54.6655 22.6978 51.8457 20.3394 47.1631 20.3394H36.8579ZM41.2671 23.7744H46.0864C48.7524 23.7744 50.3076 25.0562 50.3076 27.2437V27.2778C50.3076 29.5166 48.6499 30.73 45.5225 30.73H41.2671V23.7744ZM41.2671 33.8574H46.2231C49.5898 33.8574 51.3672 35.1733 51.3672 37.6685V37.7026C51.3672 40.2148 49.6411 41.5649 46.394 41.5649H41.2671V33.8574Z" fill="black"/>
</svg>
