<svg width="64" height="64" viewBox="0 0 64 64" fill="none" xmlns="http://www.w3.org/2000/svg">
<path fill-rule="evenodd" clip-rule="evenodd" d="M8 0C3.58172 0 0 3.58172 0 8V56C0 60.4183 3.58172 64 8 64H56C60.4183 64 64 60.4183 64 56V8C64 3.58172 60.4183 0 56 0H8ZM10.2959 36.5063C10.2959 41.9409 14.1924 45.6152 20.4302 45.6152C26.7021 45.6152 30.5645 41.9409 30.5645 36.5063V20.3394H26.1553V36.1475C26.1553 39.5483 24.1045 41.8042 20.4473 41.8042C16.7729 41.8042 14.7051 39.5483 14.7051 36.1475V20.3394H10.2959V36.5063ZM35.5205 38.54C35.8281 42.7954 39.4683 45.6152 45.1934 45.6152C51.1064 45.6152 54.8149 42.6074 54.8149 37.8052V37.7881C54.8149 34.0625 52.6445 31.9775 47.4492 30.8838L44.8003 30.3198C41.7241 29.6704 40.4766 28.5767 40.4766 26.8335V26.8164C40.4766 24.7144 42.4248 23.4326 45.1592 23.4326C47.979 23.4155 49.8076 24.7827 50.1152 26.6968L50.1494 26.9019H54.3706L54.3535 26.6797C54.0459 22.7148 50.645 19.7241 45.1763 19.7241C39.8442 19.7241 36.0503 22.6978 36.0503 27.1069V27.124C36.0503 30.7983 38.2378 33.1567 43.2793 34.2163L45.9282 34.7632C49.1069 35.4468 50.3887 36.5234 50.3887 38.3008V38.3179C50.3887 40.437 48.3037 41.9067 45.3301 41.9067C42.2026 41.9067 39.998 40.5396 39.793 38.4717L39.7759 38.3008H35.5034L35.5205 38.54Z" fill="black"/>
</svg>
