<svg width="64" height="64" viewBox="0 0 64 64" fill="none" xmlns="http://www.w3.org/2000/svg">
<path fill-rule="evenodd" clip-rule="evenodd" d="M8 0C3.58172 0 0 3.58172 0 8V56C0 60.4183 3.58172 64 8 64H56C60.4183 64 64 60.4183 64 56V8C64 3.58172 60.4183 0 56 0H8ZM37.232 17.224C35.696 14.44 34.112 11.896 32.432 9.544L29.552 10.936C31.232 13.192 32.864 15.736 34.4 18.616L37.232 17.224ZM36.032 22.12H44.144V33.496H35.936C35.984 32.536 36.032 31.576 36.032 30.52V22.12ZM35.648 36.712H44.144V53.656H47.504V36.712H53.984V33.496H47.504V22.12H53.024V18.904H46.304C47.744 16.408 49.088 13.624 50.24 10.504L47.024 9.352C45.776 12.76 44.384 15.928 42.752 18.904H26.96V22.12H32.672V30.52C32.672 31.48 32.624 32.488 32.576 33.496H26.096V36.712H32.288C31.952 39.208 31.472 41.416 30.8 43.336C29.552 46.456 27.296 49 24.128 50.92L26.048 53.896C29.504 51.928 32 49.192 33.536 45.688C34.544 43.192 35.264 40.216 35.648 36.712ZM24.992 32.344V28.84C23.456 29.752 21.824 30.616 20.192 31.432V21.928H25.088V18.616H20.192V9.928H16.64V18.616H10.544V21.928H16.64V32.968C14.432 33.832 12.176 34.6 9.872 35.224L10.736 38.68C12.752 38.008 14.72 37.288 16.64 36.472V48.376C16.64 49.624 16.016 50.248 14.768 50.248C13.6604 50.248 12.5527 50.1593 11.4025 50.0671L11.264 50.056L11.984 53.416H15.968C18.752 53.416 20.192 52.024 20.192 49.288V34.888C21.824 34.12 23.408 33.256 24.992 32.344Z" fill="black"/>
</svg>
