<svg width="64" height="64" viewBox="0 0 64 64" fill="none" xmlns="http://www.w3.org/2000/svg">
<path fill-rule="evenodd" clip-rule="evenodd" d="M8 0C3.58172 0 0 3.58172 0 8V56C0 60.4183 3.58172 64 8 64H56C60.4183 64 64 60.4183 64 56V8C64 3.58172 60.4183 0 56 0H8ZM13.3423 20.3394V45H17.7515V34.9341H28.0908V31.3452H17.7515V24.0479H29.0649V20.3394H13.3423ZM33.9526 20.3394V45H38.3618V35.7202H43.2495L48.0859 45H53.1274L47.7441 35.0537C50.6665 33.9941 52.3926 31.2939 52.3926 28.0298V27.9956C52.3926 23.2959 49.2139 20.3394 43.916 20.3394H33.9526ZM43.4546 32.3364H38.3618V23.9111H43.3691C46.1719 23.9111 47.8638 25.5176 47.8638 28.0981V28.1323C47.8638 30.7812 46.2402 32.3364 43.4546 32.3364Z" fill="black"/>
</svg>
