<svg width="64" height="64" viewBox="0 0 64 64" fill="none" xmlns="http://www.w3.org/2000/svg">
<path fill-rule="evenodd" clip-rule="evenodd" d="M8 0C3.58172 0 0 3.58172 0 8V56C0 60.4183 3.58172 64 8 64H56C60.4183 64 64 60.4183 64 56V8C64 3.58172 60.4183 0 56 0H8ZM33.632 23.896H47.408V19.288H52.784V16.792H47.408V12.088H33.632V9.592H30.272V12.088H16.592V14.392H30.416V16.936H11.408V19.144H30.416V21.64H16.592V23.896H30.272V26.344H15.008V28.504H30.272V31H11.552V33.496H52.592V31H33.632V28.504H49.04V26.344H33.632V23.896ZM33.488 16.936V14.392H44.144V16.936H33.488ZM33.488 21.64V19.144H44.144V21.64H33.488ZM47.792 35.512H16.16V47.656H47.792V35.512ZM44.576 42.424V45.544H33.632V42.424H44.576ZM30.368 42.424V45.544H19.424V42.424H30.368ZM30.368 40.6H19.424V37.624H30.368V40.6ZM33.632 40.6V37.624H44.576V40.6H33.632ZM53.216 50.008H10.736V52.696H53.216V50.008Z" fill="black"/>
</svg>
