<svg width="64" height="64" viewBox="0 0 64 64" fill="none" xmlns="http://www.w3.org/2000/svg">
<path fill-rule="evenodd" clip-rule="evenodd" d="M8 0C3.58172 0 0 3.58172 0 8V56C0 60.4183 3.58172 64 8 64H56C60.4183 64 64 60.4183 64 56V8C64 3.58172 60.4183 0 56 0H8ZM45.8691 27.8H52.5191V24.6H45.8691V9.8H42.0691V42.05H45.8691V27.8ZM18.4691 52.1H47.5691V48.9H22.2691V40.9H18.4691V52.1ZM18.3191 14.7H30.9191V11.35H18.3191V14.7ZM12.0691 21.15H37.6691V18H12.0691V21.15ZM24.8691 38.8C30.7691 38.8 35.1691 35.75 35.1691 31.15C35.1691 26.45 30.7691 23.5 24.8691 23.5C19.0191 23.5 14.6191 26.45 14.6191 31.15C14.6191 35.75 19.0691 38.8 24.8691 38.8ZM24.8691 26.5C28.4191 26.5 31.5691 28.25 31.5691 31.15C31.5691 34 28.4191 35.75 24.8691 35.75C21.3691 35.75 18.2191 34 18.2191 31.15C18.2191 28.25 21.3691 26.5 24.8691 26.5Z" fill="black"/>
</svg>
