<svg width="64" height="64" viewBox="0 0 64 64" fill="none" xmlns="http://www.w3.org/2000/svg">
<path fill-rule="evenodd" clip-rule="evenodd" d="M8 0C3.58172 0 0 3.58172 0 8V56C0 60.4183 3.58172 64 8 64H56C60.4183 64 64 60.4183 64 56V8C64 3.58172 60.4183 0 56 0H8ZM22.64 17.608C20.384 15.256 17.6 12.904 14.288 10.504L11.792 12.904C15.344 15.4 18.176 17.8 20.192 20.056L22.64 17.608ZM21.008 28.936C18.896 26.536 16.256 24.184 13.088 21.832L10.64 24.184C14 26.776 16.64 29.176 18.56 31.384L21.008 28.936ZM22.208 36.328L19.136 35.08C16.976 40.84 14.432 46.456 11.552 51.928L15.008 53.416C17.648 48.088 20.048 42.376 22.208 36.328ZM37.424 17.896H24.512V21.304H36.992V32.824H25.856V36.136H36.992V48.76H23.312V52.168H53.792V48.76H40.496V36.136H51.584V32.824H40.496V21.304H52.88V17.896H38.576L40.544 17.128C39.824 14.824 38.768 12.328 37.424 9.544L34.16 10.456C35.408 12.856 36.464 15.304 37.424 17.896Z" fill="black"/>
</svg>
