<svg width="64" height="64" viewBox="0 0 64 64" fill="none" xmlns="http://www.w3.org/2000/svg">
<path fill-rule="evenodd" clip-rule="evenodd" d="M8 0C3.58172 0 0 3.58172 0 8V56C0 60.4183 3.58172 64 8 64H56C60.4183 64 64 60.4183 64 56V8C64 3.58172 60.4183 0 56 0H8ZM21.776 32.392V32.056H43.568V35.224H21.68L21.6866 35.0931C21.7323 34.1808 21.776 33.3083 21.776 32.392ZM43.568 26.152V29.32H21.776V26.152H43.568ZM14.384 53.848C18.08 49.288 20.384 44.056 21.344 38.104H46.928V23.224H18.416V32.392C18.32 40.168 16.112 46.504 11.696 51.448L14.384 53.848ZM48.512 53.8V40.984H21.824V53.704H25.184V51.832H45.2V53.8H48.512ZM45.2 48.904H25.184V43.912H45.2V48.904ZM11.888 23.416C16.16 22.072 20.096 20.488 23.648 18.568V20.344H40.4V18.664C43.664 20.392 47.552 21.976 51.968 23.416L53.84 20.536C44.144 17.464 37.28 13.96 33.296 9.976H30.704C25.856 14.296 18.944 17.848 10.016 20.536L11.888 23.416ZM32 12.808C33.728 14.44 35.84 16.024 38.336 17.512H25.472C27.824 16.072 29.984 14.536 32 12.808Z" fill="black"/>
</svg>
