<svg width="64" height="64" viewBox="0 0 64 64" fill="none" xmlns="http://www.w3.org/2000/svg">
<path fill-rule="evenodd" clip-rule="evenodd" d="M8 0C3.58172 0 0 3.58172 0 8V56C0 60.4183 3.58172 64 8 64H56C60.4183 64 64 60.4183 64 56V8C64 3.58172 60.4183 0 56 0H8ZM30 12.65C30.15 11.95 30.35 11.05 30.55 10.45L26.4 10.3C26.4 10.95 26.35 11.85 26.25 12.75C26.1888 13.3348 26.1174 13.99 26.0398 14.7027C25.9761 15.2874 25.9081 15.9108 25.8381 16.566C24.7293 16.5888 23.6155 16.6 22.5 16.6C20.35 16.6 16 16.3 14.25 16L14.35 19.75C14.5022 19.7574 14.6645 19.7654 14.8356 19.7738C16.9694 19.8786 20.4596 20.05 22.45 20.05C23.4249 20.05 24.441 20.0372 25.4868 20.012C25.2634 22.3424 25.0543 24.8733 24.9269 27.3861C18.0864 30.5153 12.45 37.1464 12.45 43.6C12.45 47.85 15.05 49.85 18.35 49.85C21.0895 49.85 24.0969 48.7483 26.7979 47.1194C27.0561 48.1255 27.3263 49.06 27.6 49.9L31.25 48.8C30.836 47.5447 30.4327 46.1967 30.064 44.7712C34.3257 41.1706 38.3464 35.6561 41.1423 28.5556C45.8267 29.8597 48.35 33.2952 48.35 37.1C48.35 43.55 42.75 48.2 33.75 49.2L35.9 52.55C47.5 50.7 52.25 44.45 52.25 37.3C52.25 31.7485 48.5077 27.1404 42.2451 25.4711C42.2635 25.4141 42.2818 25.3571 42.3 25.3C42.395 25.0467 42.505 24.7383 42.6205 24.4144C42.8699 23.7153 43.145 22.9442 43.35 22.5L39.35 21.5C39.3 22.3 39.05 23.65 38.85 24.4C38.8049 24.559 38.759 24.7169 38.7125 24.8737C38.1081 24.825 37.487 24.8 36.85 24.8C34.3038 24.8 31.2667 25.2603 28.4598 26.0848C28.5761 23.9589 28.7491 21.8506 28.9556 19.8888C35.059 19.6053 41.7071 18.9602 46.95 18.05L46.9 14.35C41.8093 15.4936 35.7388 16.1745 29.3712 16.4529C29.5717 15.0011 29.7859 13.7081 30 12.65ZM24.8053 31.1227C19.9015 33.8658 16.2 38.7781 16.2 42.95C16.2 45 17.2 46 19.05 46C21.0201 46 23.4559 45.1306 25.966 43.3918C25.2759 39.8045 24.8 35.7701 24.8 32C24.8 31.7097 24.8018 31.4171 24.8053 31.1227ZM29.1673 40.7331C28.6387 37.8732 28.3 34.7971 28.3 31.6C28.3 30.9251 28.3083 30.24 28.3239 29.5493C30.6617 28.7035 33.5843 28 36.8 28C37.0849 28 37.3648 28.0062 37.6398 28.0184C35.5039 33.5161 32.4718 37.5822 29.1673 40.7331Z" fill="black"/>
</svg>
