<svg width="64" height="64" viewBox="0 0 64 64" fill="none" xmlns="http://www.w3.org/2000/svg">
<path fill-rule="evenodd" clip-rule="evenodd" d="M8 0C3.58172 0 0 3.58172 0 8V56C0 60.4183 3.58172 64 8 64H56C60.4183 64 64 60.4183 64 56V8C64 3.58172 60.4183 0 56 0H8ZM41.12 17.656L39.92 15.592C35.312 16.744 29.456 17.368 22.448 17.368L23.072 19.432C25.712 19.432 28.208 19.336 30.512 19.192V22.936H28.112C27.584 21.784 27.008 20.68 26.336 19.72L24.32 20.392C24.8 21.16 25.28 22.024 25.76 22.936H21.968V25.096H29.264C27.44 26.536 24.752 27.784 21.152 28.792L22.448 30.808C25.808 29.56 28.496 28.024 30.512 26.248V30.232H33.296V26.92C35.984 27.832 38.576 29.032 41.12 30.52L42.368 28.648C39.632 27.304 36.656 26.104 33.392 25.096H42.272V22.936H38.144C38.864 21.88 39.488 20.68 40.064 19.432L37.76 18.808C37.184 20.344 36.464 21.736 35.6 22.936H33.296V18.952C36.272 18.664 38.864 18.232 41.12 17.656ZM47.984 34.552V12.424H31.424C31.856 11.656 32.192 10.84 32.48 9.976L29.264 9.544C28.976 10.504 28.592 11.464 28.064 12.424H16.112V34.696H19.328V15.112H44.768V34.552H47.984ZM52.976 36.328H11.312V39.304H20.336L17.744 45.64H43.568C43.28 48.184 42.8 49.672 42.176 50.104C41.6 50.584 40.448 50.824 38.72 50.824C36.992 50.824 35.168 50.728 33.2 50.536L34.016 53.512C35.4943 53.5919 36.8396 53.6386 38.0242 53.6796C38.2627 53.6879 38.4947 53.696 38.72 53.704C41.984 53.704 44.096 53.176 45.104 52.12C46.112 51.064 46.832 47.944 47.264 42.76H22.544L23.984 39.304H52.976V36.328ZM40.16 31.432H24.368V33.88H40.16V31.432Z" fill="black"/>
</svg>
