<svg width="64" height="64" viewBox="0 0 64 64" fill="none" xmlns="http://www.w3.org/2000/svg">
<path fill-rule="evenodd" clip-rule="evenodd" d="M8 0C3.58172 0 0 3.58172 0 8V56C0 60.4183 3.58172 64 8 64H56C60.4183 64 64 60.4183 64 56V8C64 3.58172 60.4183 0 56 0H8ZM11.2358 20.3394V45H21.7803C27.0439 45 30.2568 42.334 30.2568 38.0103V37.9761C30.2568 34.7803 27.9668 32.3877 24.6514 32.0801V31.7725C27.1294 31.3794 29.0435 29.0894 29.0435 26.5088V26.4746C29.0435 22.6978 26.2236 20.3394 21.541 20.3394H11.2358ZM15.645 23.7744H20.4644C23.1304 23.7744 24.6855 25.0562 24.6855 27.2437V27.2778C24.6855 29.5166 23.0278 30.73 19.9004 30.73H15.645V23.7744ZM15.645 33.8574H20.6011C23.9678 33.8574 25.7451 35.1733 25.7451 37.6685V37.7026C25.7451 40.2148 24.019 41.5649 20.772 41.5649H15.645V33.8574ZM35.0591 20.3394V45H39.4683V35.7202H44.356L49.1924 45H54.2339L48.8506 35.0537C51.7729 33.9941 53.499 31.2939 53.499 28.0298V27.9956C53.499 23.2959 50.3203 20.3394 45.0225 20.3394H35.0591ZM44.561 32.3364H39.4683V23.9111H44.4756C47.2783 23.9111 48.9702 25.5176 48.9702 28.0981V28.1323C48.9702 30.7812 47.3467 32.3364 44.561 32.3364Z" fill="black"/>
</svg>
