<svg width="64" height="64" viewBox="0 0 64 64" fill="none" xmlns="http://www.w3.org/2000/svg">
<path fill-rule="evenodd" clip-rule="evenodd" d="M8 0C3.58172 0 0 3.58172 0 8V56C0 60.4183 3.58172 64 8 64H56C60.4183 64 64 60.4183 64 56V8C64 3.58172 60.4183 0 56 0H8ZM17.216 28.168H13.808V53.848H17.216V28.168ZM41.504 53.656H45.92C48.896 53.656 50.432 52.264 50.432 49.48V22.984H28.4V26.152H47.024V48.52C47.024 49.912 46.4 50.632 45.2 50.632L40.688 50.536L41.504 53.656ZM40.736 30.424H23.408V48.52H40.736V30.424ZM37.52 40.792V45.592H26.72V40.792H37.52ZM37.52 38.008H26.72V33.304H37.52V38.008ZM24.512 26.824C23.168 25.144 21.2 23.224 18.656 21.016L16.112 22.6C18.56 24.808 20.528 26.824 21.968 28.6L24.512 26.824ZM13.424 22.12C14.96 20.344 16.304 18.376 17.552 16.264H20.864C22.16 18.136 23.312 20.104 24.272 22.168L27.344 21.016C26.672 19.528 25.712 17.944 24.512 16.264H31.712V13.24H19.04C19.424 12.328 19.808 11.368 20.192 10.36L16.832 9.64C15.488 13.48 13.376 17.032 10.496 20.248L13.424 22.12ZM34.736 21.304C35.936 19.768 36.992 18.088 37.952 16.264H41.648C42.944 18.04 44.048 19.864 45.008 21.784L48.08 20.632C47.36 19.288 46.448 17.8 45.344 16.264H53.312V13.24H39.296C39.68 12.328 40.016 11.368 40.304 10.408L36.992 9.688C35.936 13.24 34.208 16.456 31.808 19.432L34.736 21.304Z" fill="black"/>
</svg>
