<svg width="64" height="64" viewBox="0 0 64 64" fill="none" xmlns="http://www.w3.org/2000/svg">
<path fill-rule="evenodd" clip-rule="evenodd" d="M8 0C3.58172 0 0 3.58172 0 8V56C0 60.4183 3.58172 64 8 64H56C60.4183 64 64 60.4183 64 56V8C64 3.58172 60.4183 0 56 0H8ZM33.3621 22.9062C33.7891 22.3499 34.2269 21.7796 34.64 21.16V33.928H53.216V31.336H46.688V27.928H51.872V25.48H46.688V22.216H51.872V19.768H46.688V16.408H52.544V13.816H46.496C46.016 12.232 45.488 10.792 44.912 9.496L41.936 9.976C42.512 11.128 43.088 12.424 43.568 13.816H38.432L38.4321 13.8156C38.8641 12.6638 39.296 11.5119 39.728 10.264L36.848 9.64C35.312 14.44 33.392 18.328 31.04 21.304L32.864 23.56C33.0269 23.3428 33.1937 23.1256 33.3621 22.9062ZM43.76 27.928V31.336H37.616V27.928H43.76ZM43.76 22.216V25.48H37.616V22.216H43.76ZM43.76 16.408V19.768H37.616V16.408H43.76ZM11.744 24.424C12.464 23.512 13.184 22.504 13.856 21.448V33.928H32.48V31.336H25.616V27.928H30.896V25.48H25.616V22.216H30.752V19.768H25.616V16.408H31.952V13.816H25.664C25.136 12.232 24.608 10.792 24.032 9.496L21.056 9.976C21.68 11.128 22.256 12.424 22.736 13.816H17.552C17.6755 13.461 17.8039 13.101 17.9342 12.736C18.2089 11.9661 18.4915 11.1741 18.752 10.36L15.872 9.736C14.336 14.872 12.32 19.048 9.872 22.216L11.744 24.424ZM22.736 27.928V31.336H16.784V27.928H22.736ZM22.736 22.216V25.48H16.784V22.216H22.736ZM22.736 16.408V19.768H16.784V16.408H22.736ZM13.856 39.64H17.984C20.096 42.52 23.552 45.112 28.352 47.32C23.36 48.856 17.744 50.008 11.408 50.776L12.896 53.896C20.384 52.888 26.96 51.304 32.672 49.096C37.856 51.016 44.288 52.6 52.016 53.848L53.888 51.016C47.264 50.008 41.504 48.808 36.704 47.368C41.408 45.16 45.344 42.424 48.56 39.208V36.568H13.856V39.64ZM43.52 39.64C40.448 42.088 36.704 44.152 32.336 45.88C27.584 44.104 24.032 42.04 21.68 39.64H43.52Z" fill="black"/>
</svg>
