<svg width="64" height="64" viewBox="0 0 64 64" fill="none" xmlns="http://www.w3.org/2000/svg">
<path fill-rule="evenodd" clip-rule="evenodd" d="M8 0C3.58172 0 0 3.58172 0 8V56C0 60.4183 3.58172 64 8 64H56C60.4183 64 64 60.4183 64 56V8C64 3.58172 60.4183 0 56 0H8ZM14.72 17.848C15.44 17.08 16.16 16.312 16.832 15.496H33.2V13H18.608C18.7057 12.834 18.8053 12.666 18.9061 12.496C19.3008 11.8305 19.7137 11.1345 20.096 10.408L17.216 9.736C15.392 13.192 13.04 15.976 10.256 18.088L12.032 20.248L14.48 18.088C14.3491 19.6586 14.1786 21.1895 14.0044 22.7528C13.987 22.9095 13.9695 23.0666 13.952 23.224H10.256V25.528H13.616L13.616 25.5281C13.328 27.352 13.04 29.176 12.704 31H26.96C26.9137 31.139 26.8673 31.283 26.8194 31.432C26.7184 31.7459 26.6102 32.0819 26.48 32.44C23.888 33.784 21.44 34.84 19.088 35.704C18.56 35.896 17.648 36.04 16.4 36.04L16.928 38.536L29.36 38.152C24.992 39.976 20.768 41.368 16.64 42.232C15.6801 42.232 14.7681 42.184 13.8562 42.136L13.856 42.136L14.576 45.016C19.472 44.92 24.8 44.728 30.608 44.44V49.912C30.608 50.824 30.128 51.304 29.216 51.304C27.9087 51.304 26.559 51.2193 25.1273 51.1295C25.0345 51.1237 24.9414 51.1178 24.848 51.112L25.472 53.896H30.224C32.624 53.896 33.872 52.792 33.872 50.68V44.296C36.7219 44.157 39.6977 43.9928 42.7993 43.8217C43.9812 43.7564 45.1815 43.6902 46.4 43.624C47.696 44.68 48.848 45.688 49.904 46.744L52.64 44.824C50.24 42.616 46.832 40.072 42.368 37.192L39.92 38.728C40.0621 38.8295 40.2036 38.9304 40.3446 39.031C41.537 39.8814 42.6869 40.7015 43.76 41.56C36.704 42.04 29.6 42.424 22.496 42.664C29.504 40.792 36.032 38.104 42.08 34.648L39.584 33.016C37.568 34.168 35.552 35.224 33.536 36.232L22.016 36.616C25.088 35.56 28.064 34.312 30.896 32.824L29.552 31.864C29.6 31.72 29.636 31.576 29.672 31.432C29.708 31.288 29.744 31.144 29.792 31H32.432V29.08H30.224C30.416 28.024 30.608 26.824 30.752 25.528H33.872V23.224H30.944C31.04 21.592 31.088 19.816 31.088 17.848H14.72ZM15.776 29.08C16.016 27.832 16.256 26.536 16.448 25.24H28.016C27.872 26.584 27.68 27.832 27.44 29.08H15.776ZM28.4 19.72C28.352 21.064 28.256 22.36 28.16 23.608H16.688L17.12 19.72H28.4ZM43.28 24.52C40.928 22.408 39.392 19.912 38.672 17.128H47.264C46.496 20.008 45.152 22.456 43.28 24.52ZM36.848 19.576C37.76 22.072 39.2 24.376 41.216 26.44C39.008 28.168 36.272 29.416 32.912 30.232L34.544 32.776C38.096 31.864 41.072 30.424 43.472 28.408C45.872 30.232 48.896 31.864 52.544 33.208L54.128 30.472C50.768 29.32 47.888 27.928 45.584 26.344C47.696 23.896 49.232 20.824 50.144 17.128H53.024V14.344H40.112C40.736 13.096 41.312 11.8 41.888 10.408L38.912 9.736C37.184 14.248 34.928 17.848 32.24 20.632L34.064 22.84C35.024 21.88 35.936 20.776 36.848 19.576ZM25.328 22.168C23.84 21.352 22.208 20.68 20.384 20.152L19.472 21.496C21.152 21.976 22.832 22.648 24.464 23.512L25.328 22.168ZM24.944 27.496C23.36 26.728 21.584 26.104 19.616 25.576L18.752 26.92C20.528 27.4 22.304 28.024 24.032 28.888L24.944 27.496ZM52.736 50.536C48.8 48.76 44.432 47.272 39.632 46.024L37.904 48.568C42.416 49.72 46.784 51.256 51.008 53.272L52.736 50.536ZM25.184 48.28L23.36 46.168C20.096 47.992 15.92 49.48 10.928 50.632L12.224 53.32C17.408 51.976 21.728 50.296 25.184 48.28Z" fill="black"/>
</svg>
