<svg width="64" height="64" viewBox="0 0 64 64" fill="none" xmlns="http://www.w3.org/2000/svg">
<path fill-rule="evenodd" clip-rule="evenodd" d="M8 0C3.58172 0 0 3.58172 0 8V56C0 60.4183 3.58172 64 8 64H56C60.4183 64 64 60.4183 64 56V8C64 3.58172 60.4183 0 56 0H8ZM11.3726 20.3394V45H20.6182C28.001 45 32.2222 40.4712 32.2222 32.5757V32.5415C32.2222 24.8169 27.9497 20.3394 20.6182 20.3394H11.3726ZM20.0371 41.2915H15.7817V24.0479H20.0371C24.8735 24.0479 27.7275 27.1924 27.7275 32.6099V32.644C27.7275 38.1812 24.9419 41.2915 20.0371 41.2915ZM37.2808 20.3394V45H53.2427V41.2915H41.6899V34.2334H52.6104V30.73H41.6899V24.0479H53.2427V20.3394H37.2808Z" fill="black"/>
</svg>
